:FULLY-SPECIFIED
:FORCE-ALL-JOINTS-BE-3DOF
:DEGREES
68
root 5.93212 16.7499 -28.0705 10.9802 3.05901 -3.95498
lfemur -34.8927 14.5871 -17.3445
ltibia 51.7048 -0 0
lfoot -20.8997 -11.0556 0.17964
ltoes 32.0399 -0 0
rfemur -16.2525 -1.59034 22.2384
rtibia 29.249 -0 0
rfoot -28.3156 -17.8238 -0.314485
rtoes -9.25137 0 0
lowerback -3.66283 2.54228 3.46268
upperback -1.45472 3.27339 -0.228365
thorax 0.757532 1.63145 -2.03524
lowerneck -9.96295 -2.54251 2.17354
upperneck -5.56103 -3.53669 2.12726
head -0.0899869 -1.78376 0.197866
lclavicle 2.26863e-014 6.55989e-015 0
lhumerus -40.6582 -12.4269 93.8738
lradius 44.1636 -0 0
lwrist 7.86332 0 0
lhand -11.1989 2.27693 -0.0151868
lfingers 7.12502 -0 0
lthumb 14.83 31.7415 -0.00882086
rclavicle 2.26863e-014 6.55989e-015 0
rhumerus -39.3542 1.67316 -91.99
rradius 42.7318 -0 0
rwrist 7.04439 0 0
rhand -24.4995 -21.9822 0.00563329
rfingers 7.12502 -0 0
rthumb 1.99485 -51.9511 0.00553493
69
root 5.94725 16.7451 -28.0432 11.0052 3.11986 -4.12964
lfemur -35.2564 14.4952 -16.9312
ltibia 51.6063 -0 0
lfoot -20.6559 -10.2847 0.205283
ltoes 31.3215 -0 0
rfemur -15.7916 -1.87434 22.4829
rtibia 28.6428 -0 0
rfoot -28.798 -17.9413 -0.463507
rtoes -9.58126 0 0
lowerback -3.6483 2.63343 3.5172
upperback -1.49064 3.39355 -0.190699
thorax 0.718333 1.69082 -2.02549
lowerneck -9.9842 -2.60872 2.23442
upperneck -5.59345 -3.63019 2.10081
head -0.0993439 -1.83183 0.177739
lclavicle 2.26863e-014 6.55989e-015 0
lhumerus -40.7626 -12.1666 93.7085
lradius 44.2148 -0 0
lwrist 7.92917 0 0
lhand -11.2129 2.24478 -0.0226058
lfingers 7.12502 -0 0
lthumb 14.8171 31.7177 -0.0131822
rclavicle 2.26863e-014 6.55989e-015 0
rhumerus -39.2187 1.82615 -91.9681
rradius 42.8408 -0 0
rwrist 7.0268 0 0
rhand -24.3544 -21.9403 0.00672991
rfingers 7.12502 -0 0
rthumb 2.13504 -51.9075 0.00661802
70
root 5.96349 16.7405 -28.0138 11.0309 3.16998 -4.31307
lfemur -35.6056 14.3551 -16.4851
ltibia 51.4421 -0 0
lfoot -20.4384 -9.39792 0.222974
ltoes 30.5523 -0 0
rfemur -15.2912 -2.15949 22.7393
rtibia 27.9822 -0 0
rfoot -29.3234 -18.0739 -0.627696
rtoes -9.87721 0 0
lowerback -3.64013 2.73193 3.56505
upperback -1.53059 3.52345 -0.1491
thorax 0.678346 1.75506 -2.00752
lowerneck -10.0058 -2.67698 2.30319
upperneck -5.62066 -3.72747 2.06931
head -0.107303 -1.88184 0.154694
lclavicle 2.26863e-014 6.55989e-015 0
lhumerus -40.8784 -11.8868 93.5368
lradius 44.2577 -0 0
lwrist 7.99618 0 0
lhand -11.2321 2.21276 -0.0307608
lfingers 7.12502 -0 0
lthumb 14.7992 31.6951 -0.0179861
rclavicle 2.26863e-014 6.55989e-015 0
rhumerus -39.0736 1.97031 -91.9394
rradius 42.946 -0 0
rwrist 7.0205 0 0
rhand -24.2042 -21.8902 0.00766496
rfingers 7.12502 -0 0
rthumb 2.28011 -51.8556 0.00754283
71
root 5.98087 16.7359 -27.9824 11.0553 3.21205 -4.50256
lfemur -35.9379 14.1712 -16.012
ltibia 51.2188 -0 0
lfoot -20.2449 -8.41542 0.233118
ltoes 29.7428 -0 0
rfemur -14.7648 -2.44392 22.9997
rtibia 27.2898 -0 0
rfoot -29.8719 -18.2116 -0.80026
rtoes -10.1361 0 0
lowerback -3.63633 2.83585 3.606
upperback -1.57354 3.66067 -0.10395
thorax 0.637434 1.82297 -1.9817
lowerneck -10.0277 -2.74698 2.37841
upperneck -5.64217 -3.82796 2.03341
head -0.113662 -1.93348 0.129148
lclavicle 2.26863e-014 6.55989e-015 0
lhumerus -41.0048 -11.5917 93.3605
lradius 44.2939 -0 0
lwrist 8.06511 0 0
lhand -11.2523 2.18232 -0.0392869
lfingers 7.12502 -0 0
lthumb 14.7804 31.6745 -0.0230158
rclavicle 2.26863e-014 6.55989e-015 0
rhumerus -38.9214 2.10543 -91.9008
rradius 43.0486 -0 0
rwrist 7.02352 0 0
rhand -24.0502 -21.8322 0.00842068
rfingers 7.12502 -0 0
rthumb 2.42885 -51.7956 0.00829126
72
root 5.99946 16.7315 -27.9492 11.0762 3.24876 -4.69542
lfemur -36.251 13.9476 -15.5176
ltibia 50.9432 -0 0
lfoot -20.0731 -7.35729 0.236305
ltoes 28.9035 -0 0
rfemur -14.2254 -2.7255 23.2565
rtibia 26.5883 -0 0
rfoot -30.4233 -18.3446 -0.974138
rtoes -10.3548 0 0
lowerback -3.63489 2.94329 3.63986
upperback -1.61845 3.80275 -0.0556239
thorax 0.595462 1.89329 -1.94841
lowerneck -10.0499 -2.8184 2.45858
upperneck -5.65745 -3.93111 1.99372
head -0.118218 -1.98644 0.101517
lclavicle 2.26863e-014 6.55989e-015 0
lhumerus -41.1408 -11.2855 93.1815
lradius 44.3251 -0 0
lwrist 8.1367 0 0
lhand -11.2689 2.15493 -0.0478132
lfingers 7.12502 -0 0
lthumb 14.7651 31.6566 -0.0280507
rclavicle 2.26863e-014 6.55989e-015 0
rhumerus -38.7652 2.23134 -91.8488
rradius 43.1497 -0 0
rwrist 7.03392 0 0
rhand -23.8936 -21.7665 0.00898125
rfingers 7.12502 -0 0
rthumb 2.58005 -51.7278 0.00884727
73
root 6.01928 16.7272 -27.9146 11.0918 3.28277 -4.88896
lfemur -36.5426 13.6882 -15.0079
ltibia 50.6219 -0 0
lfoot -19.9206 -6.24363 0.233258
ltoes 28.0447 -0 0
rfemur -13.6864 -3.00184 23.5022
rtibia 25.9004 -0 0
rfoot -30.9576 -18.4634 -1.14199
rtoes -10.5302 0 0
lowerback -3.63384 3.05232 3.66643
upperback -1.66428 3.94726 -0.00448989
thorax 0.552291 1.96481 -1.908
lowerneck -10.0723 -2.89092 2.54225
upperneck -5.66602 -4.03636 1.95086
head -0.120769 -2.04042 0.0722156
lclavicle 2.26863e-014 6.55989e-015 0
lhumerus -41.2853 -10.9723 93.0019
lradius 44.3531 -0 0
lwrist 8.21168 0 0
lhand -11.2776 2.13203 -0.0559644
lfingers 7.12502 -0 0
lthumb 14.7574 31.6423 -0.0328677
rclavicle 2.26863e-014 6.55989e-015 0
rhumerus -38.6076 2.34782 -91.7805
rradius 43.2505 -0 0
rwrist 7.04974 0 0
rhand -23.7357 -21.6933 0.00933379
rfingers 7.12502 -0 0
rthumb 2.73251 -51.6525 0.00919783
74
root 6.0404 16.7231 -27.8786 11.0998 3.31672 -5.08047
lfemur -36.8104 13.3971 -14.489
ltibia 50.2615 -0 0
lfoot -19.7852 -5.09452 0.224782
ltoes 27.177 -0 0
rfemur -13.1607 -3.27032 23.7294
rtibia 25.2487 -0 0
rfoot -31.4549 -18.5587 -1.29624
rtoes -10.6592 0 0
lowerback -3.63118 3.16103 3.68553
upperback -1.71002 4.09173 0.0490928
thorax 0.507782 2.03628 -1.86085
lowerneck -10.0949 -2.96422 2.62794
upperneck -5.66736 -4.14313 1.90545
head -0.121116 -2.09509 0.0416598
lclavicle 2.26863e-014 6.55989e-015 0
lhumerus -41.4373 -10.6563 92.8234
lradius 44.3794 -0 0
lwrist 8.29081 0 0
lhand -11.2738 2.11508 -0.0633623
lfingers 7.12502 -0 0
lthumb 14.7616 31.6323 -0.0372421
rclavicle 2.26863e-014 6.55989e-015 0
rhumerus -38.4514 2.45465 -91.6924
rradius 43.3521 -0 0
rwrist 7.06904 0 0
rhand -23.5778 -21.6128 0.00946916
rfingers 7.12502 -0 0
rthumb 2.885 -51.5698 0.00933371
75
root 6.06284 16.7191 -27.8415 11.0983 3.35326 -5.26727
lfemur -37.0517 13.078 -13.9667
ltibia 49.8687 -0 0
lfoot -19.6645 -3.93003 0.211719
ltoes 26.3106 -0 0
rfemur -12.6615 -3.52806 23.931
rtibia 24.6559 -0 0
rfoot -31.8953 -18.6215 -1.42909
rtoes -10.7386 0 0
lowerback -3.62493 3.26749 3.69697
upperback -1.75465 4.23372 0.104774
thorax 0.461792 2.10649 -1.80732
lowerneck -10.1175 -3.03799 2.71418
upperneck -5.66099 -4.25086 1.8581
head -0.119058 -2.15015 0.0102637
lclavicle 2.26863e-014 6.55989e-015 0
lhumerus -41.5957 -10.3417 92.6482
lradius 44.4057 -0 0
lwrist 8.37483 0 0
lhand -11.2531 2.10554 -0.0696298
lfingers 7.12502 -0 0
lthumb 14.782 31.6274 -0.0409505
rclavicle 2.26863e-014 6.55989e-015 0
rhumerus -38.2995 2.5516 -91.5814
rradius 43.4558 -0 0
rwrist 7.08987 0 0
rhand -23.4211 -21.5252 0.00938282
rfingers 7.12502 -0 0
rthumb 3.03632 -51.4802 0.00925036
76
root 6.08668 16.7154 -27.8036 11.0852 3.39501 -5.44666
lfemur -37.2639 12.7344 -13.4475
ltibia 49.4502 -0 0
lfoot -19.5562 -2.77026 0.194918
ltoes 25.4561 -0 0
rfemur -12.2015 -3.77201 24.1001
rtibia 24.1447 -0 0
rfoot -32.2591 -18.643 -1.53266
rtoes -10.7653 0 0
lowerback -3.61311 3.36978 3.70057
upperback -1.79714 4.37077 0.162211
thorax 0.414176 2.1742 -1.74777
lowerneck -10.1401 -3.11192 2.7995
upperneck -5.6464 -4.35899 1.80943
head -0.114398 -2.20529 -0.0215584
lclavicle 2.26863e-014 6.55989e-015 0
lhumerus -41.7594 -10.0325 92.4781
lradius 44.4338 -0 0
lwrist 8.46448 0 0
lhand -11.2111 2.10484 -0.0743947
lfingers 7.12502 -0 0
lthumb 14.8228 31.6283 -0.0437726
rclavicle 2.26863e-014 6.55989e-015 0
rhumerus -38.1545 2.63843 -91.4443
rradius 43.5628 -0 0
rwrist 7.11027 0 0
rhand -23.2669 -21.4308 0.00907556
rfingers 7.12502 -0 0
rthumb 3.18526 -51.3837 0.00894856
